<?xml version="1.0" encoding="UTF-8"?>
<!DOCTYPE svg PUBLIC "-//W3C//DTD SVG 1.1//EN" "http://www.w3.org/Graphics/SVG/1.1/DTD/svg11.dtd">
<!-- Creator: CorelDRAW X6 -->
<svg xmlns="http://www.w3.org/2000/svg" xml:space="preserve" width="233mm" height="33mm" version="1.1" style="shape-rendering:geometricPrecision; text-rendering:geometricPrecision; image-rendering:optimizeQuality; fill-rule:evenodd; clip-rule:evenodd"
viewBox="0 0 23300 3300"
 xmlns:xlink="http://www.w3.org/1999/xlink">
 <defs>
  <style type="text/css">
   <![CDATA[
    .fil0 {fill:#2FB995;fill-rule:nonzero}
   ]]>
  </style>
 </defs>
 <g id="Camada_x0020_1">
  <metadata id="CorelCorpID_0Corel-Layer"/>
  <path class="fil0" d="M2690 32l546 0 0 3188 -592 0 -1280 -2181 0 2181 -546 0 0 -3188 592 0 1280 2181 0 -2181zm2792 5l1439 3188 -601 0 -246 -546 0 0 -246 -546 0 0 -647 -1430 -647 1430 829 0 246 546 -1321 0 -246 546 -601 0 1439 -3188 601 0zm3311 0l0 546 -934 0 0 2641 -546 0 0 -2641 -938 0 0 -546 938 0 546 0 934 0zm2905 0l0 1913c0,185 -35,359 -105,521 -70,162 -165,304 -287,426 -121,121 -263,217 -426,287 -162,70 -336,105 -521,105 -185,0 -359,-35 -521,-105 -162,-70 -304,-165 -426,-287 -121,-121 -217,-263 -287,-426 -70,-162 -105,-336 -105,-521l0 -1913 546 0 0 1913c0,106 20,207 59,303 39,96 97,181 173,257 76,76 162,134 257,173 96,39 197,59 303,59 219,0 405,-77 560,-232 76,-76 134,-162 173,-257 39,-96 59,-197 59,-303l0 -1913 546 0zm2632 1143c0,115 -16,225 -48,330 -32,105 -76,201 -132,289 -56,88 -124,168 -205,239 -81,71 -169,130 -266,175l651 1011 -651 0 -578 -897 -373 0 223 -546 237 0c164,0 305,-59 424,-178 55,-58 97,-123 128,-196 30,-73 45,-149 45,-228 0,-79 -15,-155 -45,-228 -30,-73 -73,-137 -128,-191 -118,-118 -260,-178 -424,-178l-647 0 0 301 0 897 0 546 0 897 -546 0 0 -897 0 -1444 0 -847 1193 0c158,0 306,30 444,91 138,61 259,143 362,246 103,103 185,224 246,362 61,138 91,286 91,444zm2441 -597l-1598 0 0 774 1189 0 137 546 -1325 0 0 774 1598 0 0 546 -2145 0 0 -3188 2145 0 0 546zm843 2095l1252 0 0 546 -1252 0 -546 0 0 -546 0 -2637 546 0 0 2637zm3429 -2641l1439 3188 -601 0 -246 -546 0 0 -246 -546 0 0 -647 -1430 -647 1430 829 0 246 546 -1321 0 -246 546 -601 0 1439 -3188 601 0z"/>
 </g>
</svg>
