<?xml version="1.0" encoding="UTF-8"?>
<!DOCTYPE svg PUBLIC "-//W3C//DTD SVG 1.1//EN" "http://www.w3.org/Graphics/SVG/1.1/DTD/svg11.dtd">
<!-- Creator: CorelDRAW X6 -->
<svg xmlns="http://www.w3.org/2000/svg" xml:space="preserve" width="110mm" height="85mm" version="1.1" style="shape-rendering:geometricPrecision; text-rendering:geometricPrecision; image-rendering:optimizeQuality; fill-rule:evenodd; clip-rule:evenodd"
viewBox="0 0 11000 8500"
 xmlns:xlink="http://www.w3.org/1999/xlink">
 <defs>
  <style type="text/css">
   <![CDATA[
    .fil0 {fill:#34B729}
   ]]>
  </style>
 </defs>
 <g id="Camada_x0020_1">
  <metadata id="CorelCorpID_0Corel-Layer"/>
  <g id="_650629960">
   <path class="fil0" d="M3063 3167c-347,0 -411,207 -616,480 -141,188 -275,381 -416,569l-269 367c-24,35 -55,69 -75,106l18 22c42,-22 166,-159 225,-211 61,-55 113,-121 176,-174l10 -8c17,-14 24,-22 39,-37 51,-51 98,-98 149,-149l76 -70c26,-26 47,-47 73,-73l68 -66c66,-60 124,-129 191,-188 28,-24 94,-96 121,-101 36,-7 78,34 78,67 0,33 -35,61 -54,80 -127,127 -1009,999 -1036,1039 12,22 15,27 35,41 34,-23 45,-37 74,-66 8,-8 10,-10 18,-17 68,-57 128,-134 195,-190 76,-63 138,-143 213,-206l72 -68c95,-95 188,-182 283,-277 13,-13 22,-23 35,-35 5,-4 4,-4 9,-8l28 -24c63,-58 116,-125 182,-180 1,-1 2,-2 3,-3 49,-39 124,1 107,66 -8,32 -142,155 -177,191l-36 39c-224,223 -490,481 -706,705 -15,16 -19,25 -35,41 -50,50 -105,94 -144,153l34 36c57,-39 124,-125 178,-175l205 -197c69,-57 126,-128 191,-188l223 -214c1,-1 2,-2 3,-3l201 -195c58,-48 115,-137 172,-137 35,0 69,43 61,78 -8,38 -184,199 -217,232l-168 165c-6,6 -3,4 -9,9l-689 687c-16,16 -20,29 -45,31 2,27 23,41 41,52 56,-30 537,-382 605,-432 203,-150 413,-290 615,-441 114,-85 226,-147 270,-301 18,-63 18,-101 14,-167 -8,-119 -29,-88 -29,-233 0,-50 31,-138 51,-170 69,-114 171,-196 265,-289 6,-6 9,-8 15,-14l569 -544c53,-49 103,-104 159,-150 41,-34 74,-78 115,-112l6 -5c1,-1 2,-2 3,-3l572 -548c7,-6 9,-8 15,-14l395 -380c76,-63 183,-180 258,-250l28 -24c13,-11 19,-17 30,-28 22,-22 33,-34 58,-53 293,-218 639,-374 994,-457 95,-23 182,-37 283,-49 432,-54 861,15 1261,163 33,12 51,22 82,34 56,22 107,47 160,74 28,14 48,27 76,41 145,73 363,219 487,335l122 111c42,39 81,75 116,123 81,111 163,230 232,351 73,128 138,258 194,395 22,54 43,113 62,171 60,181 101,381 122,578 7,70 6,154 12,222 2,27 -4,25 -5,51l-6 169c-10,235 -98,544 -182,757 -12,30 -22,53 -34,83 -10,25 -25,58 -38,84l-99 192c-8,16 -12,23 -21,38 -16,26 -27,47 -43,74 -144,240 -167,202 -324,381l-25 28c-99,111 -216,205 -312,318 -68,81 -164,167 -241,243 -12,12 -18,18 -28,30 -1,1 -2,2 -3,3l-26 26c-20,20 -36,39 -57,60l-350 356c-14,14 -15,18 -26,32 -9,11 -18,19 -29,29 -21,21 -37,38 -58,58l-170 180c-1,1 -2,2 -3,3 -45,51 -101,95 -145,147 -37,44 -393,407 -467,472 -13,12 -19,13 -32,26l-181 169c-146,128 -287,262 -443,379 -67,50 -133,106 -203,152 -129,83 -449,203 -577,245 -570,190 -1151,178 -1709,-44 -89,-36 -164,-73 -247,-114 -137,-68 -260,-154 -387,-237 -70,-46 -138,-100 -203,-152 -18,-14 -35,-26 -52,-42 -16,-14 -32,-27 -48,-39 -49,-38 -97,-91 -145,-129 -20,-16 -28,-23 -46,-41l-46 -41c-82,-70 -235,-234 -313,-317l-401 -445c-22,-24 -72,-28 -103,-37l-560 -157c-49,-14 -93,-25 -141,-39 -44,-13 -96,-30 -141,-40 5,13 1,5 10,14l138 125c72,72 174,157 251,233 33,33 62,65 97,95l18 17c169,154 367,367 538,535 5,5 7,6 12,11 1,1 5,4 6,5 1,1 2,2 3,3l30 29c1,1 2,2 3,3l577 536c12,9 14,13 24,22l187 151c143,115 297,223 457,312 22,12 42,25 63,37 146,85 307,151 467,210 361,131 766,161 1153,122 336,-34 751,-155 1064,-294 54,-24 192,-73 235,-109l1538 -1418c54,-48 478,-468 520,-518 90,-107 200,-197 292,-303 59,-68 132,-125 190,-195l398 -412c58,-63 306,-316 328,-355l173 -340c19,-41 34,-75 52,-117 34,-82 68,-162 97,-247l42 -127c57,-175 139,-511 149,-702 6,-110 18,-214 18,-326 0,-534 -128,-934 -313,-1308 -12,-25 -21,-36 -33,-60 -81,-161 -271,-437 -399,-563 -20,-20 -26,-28 -44,-49 -36,-43 -105,-112 -147,-144 -49,-38 -136,-124 -204,-175 -92,-69 -184,-136 -281,-197l-180 -106c-84,-47 -171,-87 -260,-125 -24,-10 -39,-18 -65,-28 -25,-10 -43,-17 -67,-27 -45,-18 -94,-35 -142,-51 -312,-104 -658,-152 -1002,-152 -72,0 -172,2 -235,10 -77,10 -149,11 -219,26 -186,38 -298,50 -494,124 -32,12 -60,21 -89,33 -29,12 -59,23 -87,35l-366 188c-113,71 -223,143 -330,224l-235 197c-33,32 -101,85 -127,118 -11,15 -18,21 -31,33 -43,43 -77,83 -120,125 -83,82 -157,174 -239,257l-294 318c-20,22 -41,39 -61,61l-581 621c-47,54 -106,102 -152,157 -6,7 -7,8 -14,16 -170,180 -351,349 -525,525l-125 120c-25,20 -64,-2 -94,-9 -63,-15 -143,-28 -223,-28z"/>
   <path class="fil0" d="M160 3143c0,482 95,952 303,1365 41,82 83,163 133,240 13,20 23,38 36,57 103,154 206,284 331,416 6,6 5,6 11,12l126 125c18,17 31,25 50,44 12,12 14,12 26,21l237 182c72,53 152,100 230,143l249 125c85,38 171,74 263,104 48,16 91,29 141,45 228,75 562,125 808,125 364,0 634,-20 983,-119 235,-67 450,-152 665,-262 26,-13 51,-21 71,-40l570 -526c42,-37 78,-82 121,-118 136,-113 248,-254 380,-372 23,-20 37,-36 58,-59l430 -439c13,-14 14,-19 26,-32 38,-43 79,-73 115,-119l337 -357c12,-13 13,-19 26,-32l49 -50c87,-103 243,-252 312,-341 20,-26 37,-38 56,-61 36,-45 76,-78 111,-122 34,-42 81,-81 110,-123 130,30 233,58 373,58 241,0 441,-65 613,-174 191,-121 353,-281 469,-475 184,-309 307,-803 9,-1090 -42,-40 -137,-87 -198,-111 -287,-112 -634,-27 -874,121 -351,216 -595,566 -654,984 -4,30 -14,140 -10,165 12,99 -2,105 27,247 23,112 28,69 -63,153l-224 219c-13,12 -19,14 -32,26 -39,36 -72,76 -111,111l-338 321c-20,20 -34,36 -56,55 -48,41 -89,90 -136,132l-87 82c-22,23 -33,32 -58,53 -39,33 -72,76 -111,111l-341 324c-19,19 -35,37 -55,55l-19 16c-1,1 -2,2 -3,3 -1,1 -5,4 -6,5l-241 232c-1,1 -2,2 -3,3l-235 226c-10,11 -15,16 -27,26 -1,1 -5,4 -6,5l-305 290c-76,76 -168,130 -262,181 -180,98 -259,143 -443,216 -276,110 -605,196 -912,196 -153,0 -297,-4 -446,-26 -93,-14 -186,-31 -266,-55 -42,-12 -83,-23 -122,-35 -134,-41 -269,-96 -391,-163 -19,-10 -34,-17 -54,-28 -101,-57 -197,-121 -292,-186l-153 -121c-96,-82 -174,-166 -263,-256 -117,-118 -253,-320 -333,-460 -122,-214 -216,-441 -274,-682 -86,-357 -92,-658 -52,-1021 28,-258 114,-514 214,-748 56,-131 144,-289 231,-405 100,-133 172,-225 294,-347 214,-214 466,-381 769,-508 299,-126 695,-207 1110,-207 225,0 499,22 716,83 41,12 85,26 124,39 191,63 364,162 535,264 151,90 292,192 434,295 17,12 31,26 50,32 57,-38 170,-167 229,-226 23,-23 64,-53 80,-77 -31,-47 -153,-136 -203,-176 -19,-16 -35,-26 -54,-39 -140,-101 -284,-192 -436,-275 -138,-75 -281,-137 -430,-188 -28,-9 -47,-18 -73,-26l-296 -83c-440,-108 -983,-107 -1423,0 -414,101 -814,288 -1144,558l-393 365c-72,71 -151,172 -212,254 -70,93 -188,243 -223,348l-75 211c-139,415 -220,848 -220,1296z"/>
  </g>
 </g>
</svg>
